<svg width="401" height="401" viewBox="0 0 401 401" fill="none" xmlns="http://www.w3.org/2000/svg">
<rect width="401" height="401" rx="200.5" fill="#3F3F3F"/>
<path d="M169.333 100C172.833 100.5 172.833 100.5 176 101.333C176 102.213 176 103.093 176 104C175.211 104.28 174.422 104.56 173.609 104.849C163.897 110.848 159.713 129.36 156.25 139.667C155.864 140.816 155.477 141.966 155.079 143.15C152.569 150.9 150.761 158.649 149.333 166.667C150.169 165.543 151.004 164.419 151.865 163.26C152.965 161.785 154.066 160.309 155.167 158.833C155.992 157.722 155.992 157.722 156.833 156.589C159.101 153.553 161.317 150.683 164 148C170.074 148.741 170.074 148.741 172 150.667C171.885 153.234 171.885 153.234 171.5 156.417C171.38 157.457 171.259 158.496 171.135 159.568C170.7 162.445 170.091 165.192 169.333 168C178.784 162.285 184.081 154.9 189.333 145.333C189.773 144.893 190.213 144.453 190.667 144C193.783 144.404 196.894 144.851 200 145.333C201.32 145.333 202.64 145.333 204 145.333C205.76 145.333 207.52 145.333 209.333 145.333C208.565 155.134 205.719 164.019 202.667 173.333C218.477 164.653 225.246 150.996 230.667 134.667C232.427 135.547 234.187 136.427 236 137.333C231.6 149.653 227.2 161.973 222.667 174.667C227.253 168.977 227.253 168.977 230.911 162.964C231.406 162.059 231.9 161.154 232.409 160.221C233.411 158.358 234.411 156.493 235.409 154.628C238.649 148.703 242.182 143.721 246.667 138.667C249.307 139.327 249.307 139.327 252 140C252.343 147.883 251.064 154.986 249.333 162.667C249.976 161.735 250.619 160.804 251.281 159.844C252.545 158.024 252.545 158.024 253.833 156.167C254.669 154.96 255.504 153.754 256.365 152.51C258.667 149.333 258.667 149.333 261.333 146.667C263.533 147.107 265.733 147.547 268 148C267.56 154.16 267.12 160.32 266.667 166.667C271.965 162.428 275.341 159.127 279.417 153.917C286.047 145.448 286.047 145.448 290.667 142.667C294.333 143.083 294.333 143.083 297.333 144C297.632 147.686 297.763 149.95 295.833 153.167C293.333 154.667 293.333 154.667 285.333 153.333C284.453 159.053 283.573 164.773 282.667 170.667C293.77 166.734 300.771 159.729 308.083 150.667C310.745 147.552 310.745 147.552 313.333 145.333C318.167 145.833 318.167 145.833 322.667 146.667C330.248 140.214 334.281 131.038 338.76 122.292C341.247 117.437 343.931 112.718 346.667 108C348.427 108 350.187 108 352 108C350.274 112.653 348.215 116.61 345.516 120.766C341.046 128.1 338.329 135.588 335.75 143.75C335.295 145.161 334.841 146.572 334.372 148.025C329.338 163.862 325.925 177.875 326.667 194.667C324.115 194.203 324.115 194.203 321.333 193.333C316.776 185.255 320.02 176.832 322.307 168.418C323.339 164.879 324.41 161.355 325.5 157.833C325.87 156.622 326.239 155.41 326.62 154.161C327.519 151.217 328.423 148.274 329.333 145.333C327.67 147.285 327.67 147.285 325.974 149.276C324.51 150.99 323.047 152.703 321.583 154.417C320.489 155.702 320.489 155.702 319.372 157.013C318.663 157.842 317.954 158.672 317.224 159.526C316.25 160.668 316.25 160.668 315.256 161.832C311.425 166.151 311.425 166.151 309.333 168C305.368 167.64 304.194 166.861 301.333 164C300.318 164.843 300.318 164.843 299.281 165.703C289.694 173.333 289.694 173.333 282.667 173.333C277.858 170.128 277.527 168.071 276 162.667C272.92 165.307 269.84 167.947 266.667 170.667C261.333 168 261.333 168 260.25 165.083C259.949 160.567 260.646 156.463 261.333 152C260.529 153.251 259.725 154.503 258.896 155.792C257.82 157.417 256.744 159.042 255.667 160.667C255.139 161.493 254.611 162.32 254.068 163.172C252.479 165.542 252.479 165.542 249.333 169.333C247.573 169.333 245.813 169.333 244 169.333C242.667 168 242.667 168 242.417 163.25C242.47 157.388 243.727 152.289 245.333 146.667C237.671 159.048 230.135 171.501 222.667 184C220.907 183.12 219.147 182.24 217.333 181.333C217.333 176 217.333 170.667 217.333 165.333C216.706 166.088 216.079 166.842 215.432 167.62C214.602 168.598 213.772 169.576 212.917 170.583C212.097 171.558 211.277 172.532 210.432 173.536C208 176 208 176 204 177.333C201 176.167 201 176.167 198.667 173.333C198.285 165.966 200.604 158.99 202.667 152C201.195 153.756 201.195 153.756 199.693 155.547C198.38 157.06 197.065 158.572 195.75 160.083C195.106 160.858 194.463 161.632 193.799 162.43C191.859 164.63 191.859 164.63 188 168C184.266 167.995 184.266 167.995 181.333 166.667C180.893 165.787 180.453 164.907 180 164C178.556 165.691 178.556 165.691 177.083 167.417C173.333 170.667 173.333 170.667 169.667 170.5C166.667 169.333 166.667 169.333 165.333 168C165.12 162.447 165.357 157.404 166.667 152C161.646 156.697 158.07 161.307 154.5 167.25C153.617 168.706 152.733 170.162 151.823 171.661C149.5 175.71 147.372 179.802 145.333 184C144.013 183.56 142.693 183.12 141.333 182.667C141.161 176.209 141.69 170.471 143.083 164.167C143.408 162.658 143.733 161.149 144.068 159.594C146.78 149.035 150.658 138.858 154.5 128.667C154.935 127.486 155.37 126.305 155.818 125.089C162.832 106.501 162.832 106.501 169.333 100ZM288 149.333C288 150.213 288 151.093 288 152C289.76 151.56 291.52 151.12 293.333 150.667C293.773 148.907 294.213 147.147 294.667 145.333C291.939 145.333 289.979 147.673 288 149.333ZM196 148C192.47 151.437 189.408 154.555 186.667 158.667C186.667 160.427 186.667 162.187 186.667 164C191.259 162.07 193.815 159.631 197 155.833C197.818 154.867 198.636 153.901 199.479 152.906C200.397 151.798 200.397 151.798 201.333 150.667C199.573 149.787 197.813 148.907 196 148ZM314.854 151.526C313.606 152.957 313.606 152.957 312.333 154.417C311.488 155.36 310.642 156.304 309.771 157.276C309.186 158.175 308.602 159.074 308 160C308.44 161.32 308.88 162.64 309.333 164C310.842 162.564 312.34 161.118 313.833 159.667C314.669 158.862 315.504 158.058 316.365 157.229C318.631 154.707 319.979 152.424 321.333 149.333C317.281 148.892 317.281 148.892 314.854 151.526Z" fill="white"/>
<path d="M118.356 102.988C119.339 103.322 120.321 103.656 121.333 104C123.12 112.074 121.942 117.687 119.5 125.5C118.971 127.279 118.971 127.279 118.431 129.094C116.218 136.473 113.884 143.814 111.552 151.156C111.014 152.859 110.477 154.562 109.939 156.265C108.894 159.563 107.836 162.857 106.764 166.146C103.474 176.475 101.318 186.573 100 197.333C98.24 196.893 96.48 196.453 94.6667 196C94.0558 185.614 96.2316 177.204 99.3333 167.333C99.8078 165.777 100.282 164.22 100.771 162.616C104.588 150.167 108.554 137.762 112.63 125.396C114.664 119.171 116.546 113.199 117.333 106.667C111.746 110.672 108.095 115.198 104.417 120.917C103.852 121.778 103.287 122.64 102.705 123.528C96.6085 132.933 90.9657 142.608 85.3652 152.314C83.6093 155.34 81.8112 158.34 80 161.333C78.24 160.893 76.48 160.453 74.6667 160C72.9503 154.232 73.8022 149.037 74.5833 143.167C75.7276 134.5 76.1758 126.078 76 117.333C63.5466 143.001 63.5466 143.001 56.6667 170.516C56.4467 171.885 56.2267 173.255 56 174.667C54.68 175.327 54.68 175.327 53.3333 176C51.5733 174.24 49.8133 172.48 48 170.667C48.7442 169.247 49.4884 167.827 50.2552 166.365C54.6564 157.562 58.0384 148.331 61.6016 139.167C70.7527 115.914 70.7527 115.914 76 110.667C79.5 111.167 79.5 111.167 82.6667 112C82.8691 124.079 82.2315 135.964 81.3333 148C81.9167 147.1 82.5002 146.201 83.1012 145.274C85.8056 141.119 88.5277 136.976 91.25 132.833C92.167 131.419 93.0839 130.004 94.0287 128.547C111.291 102.373 111.291 102.373 118.356 102.988Z" fill="white"/>
<path d="M134.667 140C136.687 144.04 136.227 147.535 136 152C134.667 155.917 134.667 155.917 133.333 158.667C136.853 157.787 140.373 156.907 144 156C141.013 159.446 139.179 161.181 134.75 162.5C129.235 164.526 127.606 167.42 124 172C122.68 172.44 121.36 172.88 120 173.333C118 172 118 172 116 169.333C115.698 165.747 115.884 162.274 116 158.667C115.56 158.227 115.12 157.787 114.667 157.333C114.146 151.917 114.089 148.929 117 144.25C122.977 138.439 126.412 138.131 134.667 140ZM120.052 148.234C119.595 149.037 119.138 149.84 118.667 150.667C119.107 151.987 119.547 153.307 120 154.667C120.605 153.567 121.21 152.467 121.833 151.333C122.548 150.233 123.263 149.133 124 148C124.88 148 125.76 148 126.667 148C125.883 152.032 125.031 156.023 124 160C125.76 160.44 127.52 160.88 129.333 161.333C132.91 154.181 133.754 149.32 133.333 141.333C126.497 139.926 124.149 143.421 120.052 148.234ZM122.667 162.667C122.227 165.307 121.787 167.947 121.333 170.667C123.533 168.467 125.733 166.267 128 164C126.24 163.56 124.48 163.12 122.667 162.667Z" fill="white"/>
<path d="M242.571 199.127C245.626 200.146 248.681 201.164 251.828 202.213C251.214 202.979 250.599 203.745 249.966 204.534C244.732 211.244 240.93 217.389 237.942 225.358C239.135 224.976 239.135 224.976 240.353 224.586C245.245 223.583 249.934 223.719 254.914 223.815C255.296 222.701 255.678 221.587 256.072 220.44C258.232 215.58 260.462 212.201 264.172 208.385C268.415 207.132 268.415 207.132 271.887 206.842C272.905 208.879 273.924 210.916 274.973 213.014C273.541 213.332 272.109 213.651 270.633 213.979C265.314 215.706 265.314 215.706 262.822 220.922C262.249 222.386 261.676 223.85 261.086 225.358C262.105 226.886 263.123 228.413 264.172 229.987C262.645 230.751 262.645 230.751 261.086 231.53C261.086 230.512 261.086 229.493 261.086 228.444C256.318 232.429 254.581 236.914 252.311 242.62C251.636 244.297 250.962 245.973 250.267 247.701C249.764 248.984 249.261 250.267 248.742 251.589C251.767 251.195 254.788 250.772 257.807 250.335C259.49 250.102 261.173 249.869 262.906 249.63C267.74 248.893 267.74 248.893 270.344 243.874C272.381 244.892 274.418 245.91 276.516 246.96C275.206 252.923 273.097 258.591 271.019 264.318C270.478 265.822 270.478 265.822 269.925 267.356C269.039 269.816 268.149 272.275 267.258 274.733C278.516 266.935 286.735 257.807 295.032 246.96C295.795 249.251 295.795 249.251 296.575 251.589C293.914 254.552 291.245 257.508 288.57 260.461C287.826 261.292 287.081 262.123 286.313 262.98C273.307 277.295 273.307 277.295 265.715 277.819C262.629 274.733 262.629 274.733 262.611 271.273C262.776 269.933 262.941 268.592 263.111 267.211C263.265 265.879 263.418 264.546 263.575 263.173C264.172 259.303 264.172 259.303 265.715 253.132C256.55 253.895 256.55 253.895 247.199 254.674C247.963 257.73 247.963 257.73 248.742 260.846C249.093 267.432 249.028 274.022 249.032 280.616C249.051 282.411 249.07 284.206 249.089 286.055C249.105 295.223 248.845 303.131 245.656 311.764C242.601 312.528 242.601 312.528 239.485 313.307C234.426 307.412 234.219 303.74 234.452 296.198C235.205 287.82 236.946 279.668 238.713 271.454C239.081 269.684 239.449 267.914 239.828 266.09C240.729 261.767 241.643 257.448 242.571 253.132C241.043 252.622 239.515 252.113 237.942 251.589C237.942 250.57 237.942 249.552 237.942 248.503C239.978 248.503 242.015 248.503 244.114 248.503C246.659 241.374 249.205 234.246 251.828 226.901C246.737 227.919 241.645 228.938 236.399 229.987C221.406 271.798 221.406 271.798 222.512 314.85C219.619 314.465 219.619 314.465 216.34 313.307C209.97 303.135 213.446 289.944 215.761 278.88C216.029 277.57 216.296 276.261 216.571 274.912C223.655 241.587 223.655 241.587 230.227 228.444C226.433 229.15 222.64 229.857 218.847 230.566C217.723 230.775 216.599 230.984 215.44 231.2C208.013 232.59 200.607 234.058 193.22 235.646C190.109 236.159 190.109 236.159 183.938 236.159C183.938 234.631 183.938 233.104 183.938 231.53C194.511 228.927 204.821 227.584 215.665 226.708C218 226.508 218 226.508 220.381 226.304C224.177 225.98 227.973 225.665 231.77 225.358C232.075 224.308 232.38 223.258 232.694 222.176C233.101 220.794 233.508 219.411 233.927 217.987C234.328 216.618 234.729 215.25 235.141 213.84C236.803 208.67 238.659 203.039 242.571 199.127ZM244.114 263.932C243.329 268.848 242.562 273.767 241.799 278.687C241.578 280.068 241.357 281.45 241.13 282.873C239.954 290.518 238.915 297.857 239.485 305.593C240.503 306.611 241.521 307.629 242.571 308.679C245.98 299.108 246.02 290.323 245.849 280.23C245.828 277.875 245.828 277.875 245.807 275.471C245.771 271.625 245.72 267.779 245.656 263.932C245.147 263.932 244.638 263.932 244.114 263.932Z" fill="white"/>
<path d="M129.933 194.499C134.516 195.262 134.516 195.262 139.191 196.042C138.682 197.569 138.173 199.097 137.648 200.67C136.63 200.67 135.611 200.67 134.562 200.67C134.139 201.756 133.715 202.842 133.278 203.961C132.092 206.873 130.844 209.76 129.53 212.616C119.658 234.306 109.535 259.648 109.778 283.702C109.799 286.39 109.799 286.39 109.82 289.132C109.838 290.491 109.856 291.849 109.875 293.249C123.574 294.592 135.286 289.096 147.328 282.96C151.535 280.905 151.535 280.905 154.621 280.905C153.078 285.534 153.078 285.534 148.919 287.903C123.86 299.062 123.86 299.062 112.961 297.878C105.813 294.383 105.813 294.383 103.703 290.163C101.366 268.367 108.99 247.297 115.95 226.997C116.449 225.537 116.949 224.076 117.463 222.572C120.914 212.811 125.095 203.649 129.933 194.499Z" fill="white"/>
<path d="M163.879 237.702C166.44 239.624 166.44 239.624 168.508 242.331C168.676 245.658 168.676 245.658 168.122 249.274C167.955 250.467 167.788 251.661 167.616 252.89C166.965 256.217 166.965 256.217 165.422 260.846C169.495 259.828 173.569 258.81 177.766 257.76C174.309 261.748 172.187 263.756 167.061 265.282C160.679 267.627 158.793 270.976 154.621 276.276C153.093 276.785 151.566 277.294 149.992 277.819C145.363 274.733 145.363 274.733 144.628 271.328C144.552 270.001 144.477 268.674 144.399 267.308C144.11 262.941 143.794 259.204 142.663 254.964C142.277 251.588 142.277 251.588 143.917 247.635C149.14 241.063 155.158 236.052 163.879 237.702ZM153.56 244.259C149.908 248.443 149.908 248.443 146.906 253.131C147.415 254.659 147.924 256.187 148.449 257.76C149.404 256.233 150.359 254.705 151.342 253.131C152.424 251.604 153.506 250.076 154.621 248.503C155.639 248.503 156.658 248.503 157.707 248.503C156.8 253.169 155.814 257.787 154.621 262.389C156.658 262.898 158.694 263.408 160.793 263.932C163.94 256.326 166.049 250.694 165.422 242.331C159.654 240.188 158.421 240.19 153.56 244.259ZM153.078 265.475C152.569 268.021 152.06 270.567 151.535 273.19C156.339 272.158 156.339 272.158 157.996 268.465C158.41 267.478 158.824 266.492 159.25 265.475C157.213 265.475 155.176 265.475 153.078 265.475Z" fill="white"/>
<path d="M210.168 236.159C211.186 236.668 212.205 237.177 213.254 237.702C212.346 245.059 210.206 251.009 207.179 257.76C200.353 272.634 200.353 272.634 200.91 288.62C198.017 288.331 198.017 288.331 194.738 287.077C192.242 282.616 191.493 280.227 192.43 275.155C192.969 273.679 193.508 272.203 194.063 270.683C194.65 269.072 195.237 267.461 195.841 265.801C198.817 258.365 202.053 251.083 205.539 243.874C206.092 242.728 206.645 241.582 207.215 240.402C208.625 237.702 208.625 237.702 210.168 236.159Z" fill="white"/>
<path d="M202.453 243.874C203.472 244.383 204.49 244.892 205.539 245.417C189.509 268.247 189.509 268.247 179.309 271.647C176.223 268.561 176.223 268.561 175.741 265.282C176.406 259.162 178.532 254.204 180.852 248.503C182.888 248.503 184.925 248.503 187.024 248.503C186.307 250.555 186.307 250.555 185.577 252.649C184.201 256.938 183.176 261.049 182.395 265.475C190.495 259.149 196.605 252.314 202.453 243.874Z" fill="white"/>
</svg>
