<svg width="364" height="79" viewBox="0 0 364 79" fill="none" xmlns="http://www.w3.org/2000/svg">
<path d="M91 0C93.625 0.375 93.625 0.375 96 1C96 1.66 96 2.32 96 3C95.4083 3.21012 94.8166 3.42023 94.207 3.63672C86.9227 8.13621 83.7847 22.0203 81.1875 29.75C80.8977 30.6121 80.6079 31.4743 80.3093 32.3625C78.4269 38.1749 77.071 43.9866 76 50C76.6265 49.157 77.2529 48.3139 77.8984 47.4453C78.7238 46.3385 79.5494 45.2317 80.375 44.125C80.9937 43.2916 80.9937 43.2916 81.625 42.4414C83.3254 40.165 84.9879 38.0121 87 36C91.5555 36.5556 91.5555 36.5556 93 38C92.914 39.9258 92.914 39.9258 92.625 42.3125C92.5347 43.0924 92.4445 43.8723 92.3515 44.6758C92.0251 46.8339 91.5686 48.8942 91 51C98.0882 46.7141 102.061 41.1754 106 34C106.33 33.67 106.66 33.34 107 33C109.337 33.303 111.671 33.6386 114 34C114.99 34 115.98 34 117 34C118.32 34 119.64 34 121 34C120.423 41.3501 118.29 48.0142 116 55C127.858 48.4898 132.934 38.2471 137 26C138.32 26.66 139.64 27.32 141 28C137.7 37.24 134.4 46.48 131 56C134.44 51.7328 134.44 51.7328 137.184 47.2227C137.554 46.544 137.925 45.8653 138.307 45.166C139.058 43.7683 139.808 42.3699 140.557 40.9707C142.987 36.5276 145.636 32.7908 149 29C150.98 29.495 150.98 29.495 153 30C153.257 35.9126 152.298 41.2392 151 47C151.482 46.3013 151.964 45.6027 152.461 44.8828C153.408 43.5177 153.408 43.5177 154.375 42.125C155.001 41.2201 155.628 40.3152 156.273 39.3828C158 37 158 37 160 35C161.65 35.33 163.3 35.66 165 36C164.67 40.62 164.34 45.24 164 50C167.973 46.8212 170.506 44.3449 173.562 40.4375C178.535 34.0861 178.535 34.0861 182 32C184.75 32.3125 184.75 32.3125 187 33C187.224 35.7649 187.322 37.4628 185.875 39.875C184 41 184 41 178 40C177.34 44.29 176.68 48.58 176 53C184.327 50.0508 189.578 44.7969 195.062 38C197.059 35.6641 197.059 35.6641 199 34C202.625 34.375 202.625 34.375 206 35C211.686 30.1608 214.711 23.2788 218.07 16.7188C219.935 13.0776 221.948 9.5387 224 6C225.32 6 226.64 6 228 6C226.706 9.48985 225.161 12.4574 223.137 15.5742C219.784 21.0747 217.747 26.6909 215.812 32.8125C215.472 33.8706 215.131 34.9287 214.779 36.0188C211.003 47.8967 208.443 58.4063 209 71C207.086 70.6523 207.086 70.6523 205 70C201.582 63.9414 204.015 57.6237 205.73 51.3137C206.505 48.6596 207.307 46.0161 208.125 43.375C208.402 42.4662 208.679 41.5574 208.965 40.6211C209.639 38.4127 210.317 36.2058 211 34C209.753 35.4637 209.753 35.4637 208.48 36.957C207.383 38.2422 206.285 39.5274 205.187 40.8125C204.367 41.7764 204.367 41.7764 203.529 42.7598C202.998 43.3817 202.466 44.0037 201.918 44.6445C201.187 45.5008 201.187 45.5008 200.442 46.3743C197.569 49.6132 197.569 49.6132 196 51C193.026 50.7296 192.146 50.1455 190 48C189.238 48.6323 189.238 48.6323 188.461 49.2773C181.271 55 181.271 55 176 55C172.393 52.5956 172.145 51.0532 171 47C168.69 48.98 166.38 50.96 164 53C160 51 160 51 159.187 48.8125C158.962 45.4253 159.485 42.3474 160 39C159.397 39.9384 158.793 40.8769 158.172 41.8438C157.365 43.063 156.558 44.2817 155.75 45.5C155.354 46.12 154.958 46.7401 154.551 47.3789C153.359 49.1562 153.359 49.1562 151 52C149.68 52 148.36 52 147 52C146 51 146 51 145.812 47.4375C145.852 43.0409 146.795 39.2168 148 35C142.253 44.286 136.601 53.6255 131 63C129.68 62.34 128.36 61.68 127 61C127 57 127 53 127 49C126.529 49.5659 126.059 50.1318 125.574 50.7148C124.952 51.4483 124.329 52.1818 123.687 52.9375C123.073 53.6684 122.458 54.3993 121.824 55.1523C120 57 120 57 117 58C114.75 57.125 114.75 57.125 113 55C112.714 49.4748 114.453 44.2428 116 39C114.896 40.3168 114.896 40.3168 113.77 41.6602C112.785 42.795 111.799 43.9291 110.812 45.0625C110.33 45.6432 109.847 46.2239 109.35 46.8223C107.895 48.4727 107.895 48.4727 105 51C102.199 50.9961 102.199 50.9961 100 50C99.67 49.34 99.34 48.68 99 48C97.9172 49.2684 97.9172 49.2684 96.8125 50.5625C94 53 94 53 91.25 52.875C89 52 89 52 88 51C87.8398 46.8354 88.0175 43.0527 89 39C85.2347 42.5225 82.5524 45.9804 79.875 50.4375C79.2124 51.5293 78.5498 52.6212 77.8672 53.7461C76.1247 56.7827 74.5291 59.8515 73 63C72.01 62.67 71.02 62.34 70 62C69.8706 57.1567 70.2672 52.8529 71.3125 48.125C71.5561 46.9932 71.7997 45.8614 72.0508 44.6953C74.085 36.7762 76.9933 29.1436 79.875 21.5C80.2011 20.6144 80.5272 19.7288 80.8633 18.8164C86.1243 4.87568 86.1243 4.87568 91 0ZM180 37C180 37.66 180 38.32 180 39C181.32 38.67 182.64 38.34 184 38C184.33 36.68 184.66 35.36 185 34C182.954 34 181.484 35.755 180 37ZM111 36C108.352 38.5778 106.056 40.9165 104 44C104 45.32 104 46.64 104 48C107.444 46.5522 109.361 44.7231 111.75 41.875C112.364 41.1505 112.977 40.4261 113.609 39.6797C114.298 38.8482 114.298 38.8482 115 38C113.68 37.34 112.36 36.68 111 36ZM200.141 38.6445C199.205 39.7177 199.205 39.7177 198.25 40.8125C197.616 41.5202 196.982 42.2279 196.328 42.957C195.89 43.6312 195.452 44.3054 195 45C195.33 45.99 195.66 46.98 196 48C197.131 46.9232 198.255 45.8382 199.375 44.75C200.001 44.1467 200.628 43.5434 201.273 42.9219C202.973 41.0299 203.985 39.318 205 37C201.961 36.6687 201.961 36.6687 200.141 38.6445Z" fill="#CFCFCF"/>
<path d="M329 4C330.98 4.66 332.96 5.32 335 6C334.602 6.49629 334.203 6.99258 333.793 7.50391C330.401 11.853 327.937 15.8351 326 21C326.773 20.7525 326.773 20.7525 327.562 20.5C330.734 19.8495 333.772 19.9379 337 20C337.248 19.2781 337.495 18.5562 337.75 17.8125C339.15 14.6627 340.596 12.4731 343 10C345.75 9.1875 345.75 9.1875 348 9C348.66 10.32 349.32 11.64 350 13C349.072 13.2062 348.144 13.4125 347.188 13.625C343.74 14.7445 343.74 14.7445 342.125 18.125C341.754 19.0738 341.382 20.0225 341 21C341.66 21.99 342.32 22.98 343 24C342.01 24.495 342.01 24.495 341 25C341 24.34 341 23.68 341 23C337.91 25.5827 336.784 28.4896 335.312 32.1875C334.876 33.2742 334.439 34.3609 333.988 35.4805C333.662 36.3119 333.336 37.1434 333 38C334.96 37.7452 336.918 37.4706 338.875 37.1875C339.966 37.0367 341.056 36.8859 342.18 36.7305C345.312 36.2533 345.312 36.2533 347 33C348.32 33.66 349.64 34.32 351 35C350.151 38.8646 348.784 42.5381 347.438 46.25C347.087 47.2245 347.087 47.2245 346.729 48.2188C346.154 49.8131 345.577 51.4066 345 53C352.296 47.9461 357.623 42.0299 363 35C363.495 36.485 363.495 36.485 364 38C362.275 39.9209 360.546 41.8367 358.812 43.75C358.33 44.2888 357.847 44.8277 357.35 45.3828C348.92 54.6607 348.92 54.6607 344 55C342 53 342 53 341.988 50.7578C342.095 49.889 342.202 49.0202 342.312 48.125C342.412 47.2613 342.511 46.3977 342.613 45.5078C343 43 343 43 344 39C338.06 39.495 338.06 39.495 332 40C332.495 41.98 332.495 41.98 333 44C333.227 48.2678 333.185 52.5392 333.188 56.8125C333.2 57.9759 333.212 59.1393 333.225 60.3379C333.235 66.2795 333.067 71.4047 331 77C329.02 77.495 329.02 77.495 327 78C323.722 74.1792 323.587 71.7992 323.738 66.9111C324.226 61.4815 325.355 56.1984 326.5 50.875C326.738 49.7277 326.977 48.5805 327.223 47.3984C327.806 44.597 328.399 41.7977 329 39C328.01 38.67 327.02 38.34 326 38C326 37.34 326 36.68 326 36C327.32 36 328.64 36 330 36C331.65 31.38 333.3 26.76 335 22C331.7 22.66 328.4 23.32 325 24C315.283 51.0975 315.283 51.0975 316 79C314.125 78.75 314.125 78.75 312 78C307.872 71.4075 310.125 62.8582 311.625 55.6875C311.798 54.8388 311.971 53.9901 312.15 53.1157C316.741 31.5183 316.741 31.5183 321 23C318.542 23.4575 316.083 23.9159 313.625 24.375C312.896 24.5108 312.168 24.6465 311.417 24.7864C306.603 25.6872 301.804 26.6384 297.016 27.668C295 28 295 28 291 28C291 27.01 291 26.02 291 25C297.853 23.3134 304.534 22.4425 311.562 21.875C313.076 21.7454 313.076 21.7454 314.619 21.6133C317.079 21.4034 319.539 21.1991 322 21C322.198 20.3195 322.395 19.6389 322.599 18.9377C322.863 18.0418 323.127 17.1458 323.398 16.2227C323.658 15.3359 323.918 14.4491 324.185 13.5354C325.262 10.1842 326.465 6.53507 329 4ZM330 46C329.491 49.1862 328.995 52.3741 328.5 55.5625C328.357 56.4578 328.214 57.353 328.066 58.2754C327.304 63.2302 326.631 67.9868 327 73C327.66 73.66 328.32 74.32 329 75C331.21 68.7972 331.236 63.104 331.125 56.5625C331.111 55.0359 331.111 55.0359 331.098 53.4785C331.074 50.9854 331.041 48.4928 331 46C330.67 46 330.34 46 330 46Z" fill="#CFCFCF"/>
<path d="M52.7673 2.24071C53.5041 2.49127 54.2409 2.74184 55 2.99999C56.3403 9.05537 55.4562 13.2652 53.625 19.125C53.2281 20.4592 53.2281 20.4592 52.8232 21.8203C51.1633 27.3548 49.4131 32.8603 47.6641 38.3672C47.2608 39.6443 46.8576 40.9215 46.4546 42.1987C45.6707 44.6723 44.8773 47.1429 44.0728 49.6099C41.6054 57.3563 39.9886 64.93 39 73C37.68 72.67 36.36 72.34 35 72C34.5418 64.2108 36.1737 57.9029 38.5 50.5C38.8559 49.3325 39.2117 48.165 39.5784 46.9621C42.441 37.6257 45.4157 28.3216 48.4727 19.0469C49.9978 14.3784 51.4095 9.89901 52 4.99999C47.8094 8.00389 45.0715 11.3982 42.3125 15.6875C41.889 16.3338 41.4654 16.9801 41.0291 17.646C36.4564 24.6999 32.2243 31.9557 28.0239 39.2353C26.707 41.505 25.3584 43.7549 24 46C22.68 45.67 21.36 45.34 20 45C18.7127 40.6744 19.3516 36.778 19.9375 32.375C20.7957 25.8749 21.1319 19.5588 21 13C11.6599 32.2506 11.6599 32.2506 6.5 52.8867C6.335 53.9141 6.17 54.9415 6 56C5.01 56.495 5.01 56.495 4 57C2.68 55.68 1.36 54.36 0 53C0.558164 51.9352 1.11633 50.8705 1.69141 49.7734C4.99228 43.1717 7.52882 36.2479 10.2012 29.375C17.0645 11.9354 17.0645 11.9354 21 7.99999C23.625 8.37499 23.625 8.37499 26 8.99999C26.1518 18.0591 25.6736 26.973 25 36C25.4376 35.3253 25.8751 34.6507 26.3259 33.9556C28.3542 30.8395 30.3957 27.7323 32.4375 24.625C33.1252 23.5641 33.8129 22.5032 34.5215 21.4101C47.4679 1.77973 47.4679 1.77973 52.7673 2.24071Z" fill="#CFCFCF"/>
<path d="M256 1C258.97 1.495 258.97 1.495 262 2C261.67 2.99 261.34 3.98 261 5C260.34 5 259.68 5 259 5C258.725 5.70383 258.451 6.40766 258.168 7.13281C257.399 9.01991 256.59 10.8911 255.738 12.7422C249.341 26.7994 242.78 43.2236 242.937 58.8125C242.951 60.5547 242.951 60.5547 242.965 62.332C242.976 63.2125 242.988 64.0929 243 65C251.879 65.8705 259.469 62.3089 267.273 58.332C270 57 270 57 272 57C271 60 271 60 268.305 61.5352C252.064 68.7678 252.064 68.7678 245 68C240.368 65.7353 240.368 65.7353 239 63C237.486 48.874 242.427 35.2187 246.937 22.0625C247.261 21.1159 247.585 20.1694 247.918 19.1941C250.155 12.868 252.864 6.93047 256 1Z" fill="#CFCFCF"/>
<path d="M278 29C279.66 30.2461 279.66 30.2461 281 32C281.109 34.1562 281.109 34.1562 280.75 36.5C280.642 37.2734 280.533 38.0468 280.422 38.8437C280 41 280 41 279 44C281.64 43.34 284.28 42.68 287 42C284.76 44.5845 283.384 45.8854 280.062 46.875C275.926 48.3944 274.704 50.5649 272 54C271.01 54.33 270.02 54.66 269 55C266 53 266 53 265.523 50.7929C265.474 49.9331 265.425 49.0733 265.375 48.1875C265.188 45.3578 264.983 42.9355 264.25 40.1875C264 38 264 38 265.062 35.4375C268.448 31.1785 272.348 27.9307 278 29ZM271.312 33.25C268.945 35.9616 268.945 35.9616 267 39C267.33 39.99 267.66 40.98 268 42C268.619 41.01 269.237 40.02 269.875 39C270.576 38.01 271.277 37.02 272 36C272.66 36 273.32 36 274 36C273.412 39.0242 272.773 42.0175 272 45C273.32 45.33 274.64 45.66 276 46C278.04 41.0701 279.406 37.4204 279 32C275.262 30.6116 274.463 30.6127 271.312 33.25ZM271 47C270.67 48.65 270.34 50.3 270 52C273.113 51.3313 273.113 51.3313 274.187 48.9375C274.456 48.2981 274.724 47.6587 275 47C273.68 47 272.36 47 271 47Z" fill="#CFCFCF"/>
<path d="M65 29.9999C66.5152 33.0303 66.1703 35.6511 66 38.9999C65 41.9374 65 41.9374 64 43.9999C66.64 43.3399 69.28 42.6799 72 41.9999C69.7601 44.5844 68.3846 45.8854 65.0625 46.8749C60.9262 48.3944 59.7042 50.5649 57 53.9999C56.01 54.3299 55.02 54.6599 54 54.9999C52.5 53.9999 52.5 53.9999 51 51.9999C50.7732 49.3103 50.9127 46.7051 51 43.9999C50.67 43.6699 50.34 43.3399 50 42.9999C49.6094 38.9378 49.5666 36.6964 51.75 33.1874C56.2331 28.8289 58.8091 28.5982 65 29.9999ZM54.0391 36.1757C53.6962 36.7777 53.3533 37.3797 53 37.9999C53.33 38.9899 53.66 39.9799 54 40.9999C54.4538 40.1749 54.9075 39.3499 55.375 38.4999C55.9113 37.6749 56.4475 36.8499 57 35.9999C57.66 35.9999 58.32 35.9999 59 35.9999C58.412 39.0241 57.7732 42.0175 57 44.9999C58.32 45.3299 59.64 45.6599 61 45.9999C63.6822 40.6355 64.3153 36.9899 64 30.9999C58.8724 29.9443 57.1119 32.5655 54.0391 36.1757ZM56 46.9999C55.67 48.9799 55.34 50.9599 55 52.9999C56.65 51.3499 58.3 49.6999 60 47.9999C58.68 47.6699 57.36 47.3399 56 46.9999Z" fill="#CFCFCF"/>
<path d="M308 28C308.66 28.33 309.32 28.66 310 29C309.411 33.7685 308.025 37.6246 306.062 42C301.639 51.6392 301.639 51.6392 302 62C300.125 61.8125 300.125 61.8125 298 61C296.382 58.1089 295.896 56.5604 296.504 53.2734C296.853 52.317 297.203 51.3605 297.562 50.375C297.943 49.3309 298.323 48.2867 298.715 47.2109C300.644 42.3921 302.741 37.6724 305 33C305.358 32.2575 305.717 31.515 306.086 30.75C307 29 307 29 308 28Z" fill="#CFCFCF"/>
<path d="M303 33C303.66 33.33 304.32 33.66 305 34C294.611 48.7963 294.611 48.7963 288 51C286 49 286 49 285.688 46.875C286.119 42.9081 287.497 39.695 289 36C290.32 36 291.64 36 293 36C292.536 37.3303 292.536 37.3303 292.062 38.6875C291.171 41.4671 290.506 44.1314 290 47C295.25 42.8996 299.21 38.4704 303 33Z" fill="#CFCFCF"/>
</svg>
